<svg xmlns="http://www.w3.org/2000/svg" viewBox="0 0 32 32">
  <circle cx="16" cy="16" r="16" fill="#00662e"/>
  <path d="M16 4C10.5 4 6 8.5 6 14C6 19.5 10.5 24 16 24C17.5 24 18.9 23.6 20.2 23C18.2 24.2 15.8 24.9 13.3 24.9C7.8 24.9 3.3 20.4 3.3 14.9C3.3 9.4 7.8 4.9 13.3 4.9C14.3 4.9 15.2 5.1 16 5.4C14.8 4.5 13.3 4 11.6 4C7.4 4 4 7.4 4 11.6C4 13.7 4.9 15.6 6.2 17C4.8 15.6 4 13.7 4 11.6C4 7.4 7.4 4 11.6 4C13.3 4 14.8 4.5 16 5.4C15.2 5.1 14.2 4.9 13.3 4.9C7.8 4.9 3.3 9.4 3.3 14.9C3.3 20.4 7.8 24.9 13.3 24.9C15.8 24.9 18.2 24.2 20.2 23C18.9 23.6 17.5 24 16 24C10.5 24 6 19.5 6 14C6 8.5 10.5 4 16 4Z" fill="white" opacity="0.3"/>
  <path d="M21 9L21.8 10.8L23.7 11.1L22.3 12.4L22.6 14.3L21 13.4L19.4 14.3L19.7 12.4L18.3 11.1L20.2 10.8L21 9Z" fill="white"/>
  <path d="M15.5 10.5C12.5 10.5 10 13 10 16C10 19 12.5 21.5 15.5 21.5C16.8 21.5 18 21 18.9 20.2C17.4 21.3 15.5 22 13.5 22C10 22 7 19 7 15.5C7 12 10 9 13.5 9C14.3 9 15 9.1 15.7 9.4C14.9 9.1 14 9 13.1 9C9.7 9 7 11.7 7 15.1C7 16.8 7.7 18.4 8.8 19.5" fill="white"/>
</svg>
